<svg width="16" height="16" fill="none" xmlns="http://www.w3.org/2000/svg"><path d="M13.656 2.344a7.994 7.994 0 00-11.311 0 7.994 7.994 0 000 11.312 7.994 7.994 0 0011.31 0 7.994 7.994 0 000-11.312zm-.335 10.171a8.016 8.016 0 00-1.194-.884c.278-.962.443-2.02.482-3.121h2.352a6.916 6.916 0 01-1.64 4.005zM1.04 8.51H3.39c.04 1.1.204 2.159.483 3.12-.422.256-.821.551-1.195.885a6.916 6.916 0 01-1.64-4.005zm1.639-5.025c.374.334.773.63 1.195.884-.279.962-.444 2.02-.483 3.121H1.04a6.916 6.916 0 011.639-4.005zm4.811.99a6.925 6.925 0 01-2.375-.602C5.547 2.76 6.343 1.425 7.49 1.094v3.38zm0 1.02V7.49H4.41c.036-.93.168-1.824.387-2.642.845.369 1.753.59 2.693.648zm0 3.015v1.994a7.943 7.943 0 00-2.693.648 12.01 12.01 0 01-.386-2.642h3.08zm0 3.015v3.38c-1.146-.33-1.943-1.665-2.375-2.778a6.925 6.925 0 012.375-.602zm1.02 0c.831.06 1.633.265 2.376.602-.433 1.113-1.23 2.448-2.376 2.779v-3.38zm0-1.02V8.51h3.08c-.036.93-.168 1.824-.387 2.642a7.943 7.943 0 00-2.693-.648zm0-3.015V5.496a7.945 7.945 0 002.693-.648c.22.818.351 1.711.386 2.642H8.51zm0-3.015v-3.38c1.147.33 1.944 1.665 2.376 2.778a6.925 6.925 0 01-2.376.602zm2.29-2.872a6.95 6.95 0 011.806 1.154 7.01 7.01 0 01-.82.622 7.674 7.674 0 00-.987-1.776zM4.213 3.38a7.008 7.008 0 01-.82-.622 6.948 6.948 0 011.807-1.154 7.676 7.676 0 00-.987 1.776zm0 9.242c.254.629.58 1.24.987 1.776a6.947 6.947 0 01-1.807-1.154c.26-.23.534-.437.82-.622zm7.572 0c.286.185.56.393.82.622a6.949 6.949 0 01-1.807 1.154 7.673 7.673 0 00.987-1.776zm.823-5.13a12.935 12.935 0 00-.482-3.122c.421-.255.82-.55 1.194-.884a6.915 6.915 0 011.64 4.005h-2.352z" fill="#7284E4"/></svg>